<svg xmlns="http://www.w3.org/2000/svg" version="1.1" xmlns:xlink="http://www.w3.org/1999/xlink" width="512" height="512" x="0" y="0" viewBox="0 0 100 100" style="enable-background:new 0 0 512 512" xml:space="preserve" class=""><g><g fill-rule="evenodd" clip-rule="evenodd"><path d="M9.808 28.077V13.462a3.655 3.655 0 0 1 3.654-3.654h14.615a3.655 3.655 0 0 0 0-7.308H13.462C7.407 2.5 2.5 7.407 2.5 13.462v14.615a3.655 3.655 0 0 0 7.308 0zM2.5 71.923v14.615C2.5 92.593 7.407 97.5 13.462 97.5h14.615a3.655 3.655 0 0 0 0-7.308H13.462a3.655 3.655 0 0 1-3.654-3.654V71.923a3.655 3.655 0 0 0-7.308 0zM97.5 28.077V13.462C97.5 7.407 92.593 2.5 86.538 2.5H71.923a3.655 3.655 0 0 0 0 7.308h14.615a3.655 3.655 0 0 1 3.654 3.654v14.615a3.655 3.655 0 0 0 7.308 0zM90.192 71.923v14.615a3.655 3.655 0 0 1-3.654 3.654H71.923a3.655 3.655 0 0 0 0 7.308h14.615c6.055 0 10.962-4.907 10.962-10.962V71.923a3.655 3.655 0 0 0-7.308 0z" fill="#1e9edb" opacity="1" data-original="#000000" class=""></path><path d="m82.885 60.885-65.77.058v18.288c0 .968.384 1.9 1.071 2.583a3.644 3.644 0 0 0 2.583 1.07h58.462c.968 0 1.9-.383 2.583-1.07a3.644 3.644 0 0 0 1.07-2.583V60.885zm-65.77-14.557-10.965.018a3.658 3.658 0 0 0-3.65 3.658 3.655 3.655 0 0 0 3.657 3.65l87.693-.095c2.017 0 3.65-1.64 3.65-3.658a3.658 3.658 0 0 0-3.658-3.65l-10.957.018v-25.5c0-.968-.384-1.9-1.071-2.583a3.644 3.644 0 0 0-2.583-1.07H20.769c-.968 0-1.9.383-2.583 1.07a3.644 3.644 0 0 0-1.07 2.583z" fill="#1e9edb" opacity="1" data-original="#000000" class=""></path></g></g></svg>