<svg xmlns="http://www.w3.org/2000/svg" version="1.1" xmlns:xlink="http://www.w3.org/1999/xlink" width="512" height="512" x="0" y="0" viewBox="0 0 512 512" style="enable-background:new 0 0 512 512" xml:space="preserve" class=""><g><g data-name="68"><rect width="512" height="512" fill="#1e9edb" rx="150" transform="rotate(180 256 256)" opacity="1" data-original="#2492ff" class=""></rect><g fill="#fff"><path d="M328.53 228.79 281 181.26v129.51c0 13.81-11.19 25-25 25s-25-11.19-25-25V181.26l-47.53 47.53c-9.76 9.76-25.59 9.76-35.36 0-9.76-9.76-9.76-25.59 0-35.36l90.21-90.21c9.76-9.76 25.59-9.76 35.36 0l90.21 90.21c9.76 9.76 9.76 25.59 0 35.36-9.76 9.76-25.59 9.76-35.36 0z" fill="#ffffff" opacity="1" data-original="#ffffff"></path><path d="M116 271.09c-13.81 0-25 11.19-25 25v70c0 27.61 22.39 50 50 50h230c27.61 0 50-22.39 50-50v-70c0-13.81-11.19-25-25-25s-25 11.19-25 25v57.5c0 6.9-5.6 12.5-12.5 12.5h-205c-6.9 0-12.5-5.6-12.5-12.5v-57.5c0-13.81-11.19-25-25-25z" fill="#ffffff" opacity="1" data-original="#ffffff"></path></g></g></g></svg>