<svg xmlns="http://www.w3.org/2000/svg" version="1.1" xmlns:xlink="http://www.w3.org/1999/xlink" width="512" height="512" x="0" y="0" viewBox="0 0 56 56" style="enable-background:new 0 0 512 512" xml:space="preserve" class=""><g><g fill="#000" fill-rule="nonzero"><path d="M29.74 16.769a2.707 2.707 0 0 0-3.234-.483 6.269 6.269 0 0 0-2.565 2.733 7.16 7.16 0 0 0-.563 1.355c-.389 1.315-.304 3.03.769 3.89 1.172.94 3.15.543 4.263-.417a11.03 11.03 0 0 0 2.028-2.444c.19-.823.37-1.668.536-2.47a.949.949 0 0 1-.077-.128 5.579 5.579 0 0 0-1.157-2.036zM24.179 1.38 21.896 3h12.205l-2.22-1.574a6.01 6.01 0 0 0-7.702-.047zM49 23.348l6.359-5.285L49 13.555z" fill="#000000" opacity="1" data-original="#000000"></path><path d="M8.99 5.043 9 25.011l15.177 12.613a6.005 6.005 0 0 0 7.648-.002L47 25.01V5.008c-.003.02-.043-.007-.11-.008H9.11a.162.162 0 0 0-.12.043zm10.772 7.822a17.43 17.43 0 0 1 1.052-.944 12.746 12.746 0 0 1 11.605-2.504 9.717 9.717 0 0 1 6.757 8.936 9.206 9.206 0 0 1-2.152 6.506 5.058 5.058 0 0 1-4.947 1.816A2.857 2.857 0 0 1 30.24 25.4a2.505 2.505 0 0 1-.173-.372c-.115.11-.228.226-.346.329a6.144 6.144 0 0 1-3.906 1.448 4.598 4.598 0 0 1-2.92-.982c-1.919-1.536-1.971-4.204-1.433-6.022.18-.605.424-1.19.726-1.745a8.198 8.198 0 0 1 3.435-3.565 4.729 4.729 0 0 1 5.563.896c.139.147.27.301.392.462.106-.57.169-.925.17-.939a1 1 0 1 1 1.97.348c-.036.209-.912 5.157-1.808 8.543a.722.722 0 0 0 .045.57.89.89 0 0 0 .58.357 3.106 3.106 0 0 0 2.985-1.186 7.198 7.198 0 0 0 1.66-5.087 7.735 7.735 0 0 0-5.356-7.13 10.701 10.701 0 0 0-9.734 2.135c-.321.267-.634.546-.934.838-1.554 1.512-4.037 4.65-3.2 8.68a8.098 8.098 0 0 0 5.285 6.064c4.69 1.496 11.43 1.677 14.98-2.738a1 1 0 0 1 1.559 1.253c-2.626 3.264-6.622 4.432-10.542 4.432a22.112 22.112 0 0 1-6.604-1.041 9.99 9.99 0 0 1-6.636-7.564c-.753-3.626.62-7.46 3.764-10.519zM56 54.87V20.131L35.098 37.503zM0 20.131v34.738l20.902-17.366z" fill="#000000" opacity="1" data-original="#000000"></path><path d="m33.533 38.803-.43.359a8.01 8.01 0 0 1-10.204.001l-.433-.36L1.768 56h52.464zM.64 18.063 7 23.349v-9.794z" fill="#000000" opacity="1" data-original="#000000"></path></g></g></svg>