<svg xmlns="http://www.w3.org/2000/svg" version="1.1" xmlns:xlink="http://www.w3.org/1999/xlink" width="512" height="512" x="0" y="0" viewBox="0 0 24 24" style="enable-background:new 0 0 512 512" xml:space="preserve" class=""><g><path fill="#9b6deb" fill-rule="evenodd" d="M4 4a2 2 0 0 0-2 2v12a2 2 0 0 0 2 2h16a2 2 0 0 0 2-2V6a2 2 0 0 0-2-2zm2.707 3.293a1 1 0 0 0-1.414 1.414l4.586 4.586a3 3 0 0 0 4.242 0l4.586-4.586a1 1 0 0 0-1.414-1.414l-4.586 4.586a1 1 0 0 1-1.414 0z" clip-rule="evenodd" opacity="1" data-original="#000000" class=""></path></g></svg>