<svg xmlns="http://www.w3.org/2000/svg" version="1.1" xmlns:xlink="http://www.w3.org/1999/xlink" width="512" height="512" x="0" y="0" viewBox="0 0 24 24" style="enable-background:new 0 0 512 512" xml:space="preserve" class=""><g><g data-name="Layer 2"><g fill="#0db561"><path d="M12 8.25a.75.75 0 0 1-.75-.75v-3a.75.75 0 0 1 1.5 0v3a.75.75 0 0 1-.75.75zM7 9.25a.747.747 0 0 1-.53-.22l-2-2a.75.75 0 0 1 1.06-1.06l2 2A.75.75 0 0 1 7 9.25zM17 9.25a.75.75 0 0 1-.53-1.28l2-2a.75.75 0 0 1 1.06 1.06l-2 2a.747.747 0 0 1-.53.22z" fill="#000000" opacity="1" data-original="#0db561" class=""></path><path d="M22.24 12.514C20.33 10.361 16.457 6.75 12 6.75s-8.33 3.611-10.24 5.764a2.237 2.237 0 0 0 0 2.972C3.67 17.639 7.543 21.25 12 21.25s8.33-3.611 10.24-5.764a2.237 2.237 0 0 0 0-2.972z" fill="#000000" opacity="1" data-original="#0db561" class=""></path></g><circle cx="12" cy="14" r="6" fill="#c3ff34" opacity="1" data-original="#ffffff" class=""></circle><path fill="#ff4f40" d="M16 14a4 4 0 1 1-4-4 4.115 4.115 0 0 1 1.72.387 1.351 1.351 0 0 0-.387.946 1.337 1.337 0 0 0 1.334 1.334 1.352 1.352 0 0 0 .946-.387A4.112 4.112 0 0 1 16 14z" opacity="1" data-original="#1c5e3f" class=""></path></g></g></svg>