<svg xmlns="http://www.w3.org/2000/svg" version="1.1" xmlns:xlink="http://www.w3.org/1999/xlink" width="512" height="512" x="0" y="0" viewBox="0 0 24 24" style="enable-background:new 0 0 512 512" xml:space="preserve" class=""><g><path fill="#1e9edb" d="M3 5a3 3 0 0 1 3-3h9.757a3 3 0 0 1 2.122.879L20.12 5.12A3 3 0 0 1 21 7.243V19a3 3 0 0 1-3 3H6a3 3 0 0 1-3-3z" opacity="1" data-original="#000000" class=""></path><g fill="#9f9f9f"><path d="m17.707 2.707 2.586 2.586C20.746 5.746 21 6.36 21 7h-3a2 2 0 0 1-2-2V2c.64 0 1.254.254 1.707.707zM13 10a1 1 0 1 0-2 0v2H9a1 1 0 1 0 0 2h2v2a1 1 0 1 0 2 0v-2h2a1 1 0 1 0 0-2h-2z" fill="#ffffff" opacity="1" data-original="#9f9f9f" class=""></path></g></g></svg>