<svg xmlns="http://www.w3.org/2000/svg" version="1.1" xmlns:xlink="http://www.w3.org/1999/xlink" width="512" height="512" x="0" y="0" viewBox="0 0 512 512" style="enable-background:new 0 0 512 512" xml:space="preserve" class=""><g><path d="m354.781 66.758 53.914.094-53.914-53.915zm0 0" fill="#1e9edb" opacity="1" data-original="#000000" class=""></path><path d="M339.578 97.082c-8.371-.016-15.148-6.805-15.148-15.176V0H67.016C58.636 0 51.84 6.793 51.84 15.176V285.64c15.8-6.598 33.125-10.25 51.289-10.25 8.969 0 17.734.894 26.215 2.59a15.1 15.1 0 0 1-1.598-6.75c0-8.38 6.793-15.172 15.176-15.172h182.77c8.382 0 15.175 6.793 15.175 15.171 0 8.383-6.793 15.176-15.176 15.176H156.203c47.266 20.567 80.406 67.715 80.406 122.465 0 21.254-5.004 41.356-13.879 59.211h184.84c8.38 0 15.176-6.793 15.176-15.176V97.23zm-68.515 54.77c0 8.382-6.797 15.175-15.176 15.175H142.922c-8.383 0-15.176-6.793-15.176-15.175 0-8.38 6.793-15.176 15.176-15.176h112.965c8.379 0 15.175 6.793 15.175 15.176zm54.628 74.867h-182.77c-8.382 0-15.175-6.797-15.175-15.176 0-8.383 6.793-15.176 15.176-15.176h182.77c8.382 0 15.175 6.793 15.175 15.176 0 8.379-6.793 15.176-15.176 15.176zm0 0" fill="#1e9edb" opacity="1" data-original="#000000" class=""></path><path d="M206.258 408.871c0-56.867-46.262-103.129-103.13-103.129C46.263 305.742 0 352.004 0 408.872 0 465.737 46.262 512 103.129 512c56.867 0 103.129-46.266 103.129-103.129zm-73.453 15.176h-14.5v14.5c0 8.379-6.797 15.176-15.176 15.176-8.383 0-15.176-6.797-15.176-15.176v-14.5h-14.5c-8.383 0-15.176-6.797-15.176-15.176 0-8.383 6.793-15.176 15.176-15.176h14.5v-14.5c0-8.383 6.793-15.175 15.176-15.175 8.379 0 15.176 6.792 15.176 15.175v14.5h14.5c8.379 0 15.175 6.793 15.175 15.176 0 8.379-6.796 15.176-15.175 15.176zm0 0" fill="#1e9edb" opacity="1" data-original="#000000" class=""></path></g></svg>