<svg xmlns="http://www.w3.org/2000/svg" version="1.1" xmlns:xlink="http://www.w3.org/1999/xlink" width="512" height="512" x="0" y="0" viewBox="0 0 512 512" style="enable-background:new 0 0 512 512" xml:space="preserve" class=""><g><path d="M456.834 0H55.166C24.747 0 0 24.748 0 55.167v305.267C0 390.853 24.747 415.6 55.166 415.6h236.168v-63.2c0-51.391 41.809-93.2 93.199-93.2s93.199 41.81 93.199 93.2v59.076C497.816 403.223 512 383.458 512 360.434V55.167C512 24.748 487.252 0 456.834 0zM143.533 65.333h224.934c8.283 0 15 6.716 15 15s-6.717 15-15 15H143.533c-8.283 0-15-6.716-15-15s6.717-15 15-15zm98.533 269.934h-162.8c-8.283 0-15-6.716-15-15s6.717-15 15-15h162.801c8.285 0 15 6.716 15 15s-6.715 15-15.001 15zm190.666-111.4H79.266c-8.283 0-15-6.716-15-15s6.717-15 15-15h353.467c8.285 0 15 6.716 15 15-.001 8.284-6.715 15-15.001 15zm0-64.267H79.266c-8.283 0-15-6.716-15-15s6.717-15 15-15h353.467c8.285 0 15 6.716 15 15-.001 8.284-6.715 15-15.001 15z" fill="#ffffff" opacity="1" data-original="#000000" class=""></path><path d="M384.533 289.2c-34.848 0-63.199 28.352-63.199 63.2s28.352 63.199 63.199 63.199c34.849 0 63.199-28.351 63.199-63.199s-28.35-63.2-63.199-63.2zM321.334 420.832V497a14.998 14.998 0 0 0 23.32 12.48l39.879-26.586 39.879 26.586a14.99 14.99 0 0 0 8.322 2.52 14.998 14.998 0 0 0 14.998-15v-76.168C431.109 436.195 408.9 445.6 384.533 445.6s-46.576-9.405-63.199-24.768z" fill="#ffffff" opacity="1" data-original="#000000" class=""></path></g></svg>