<svg xmlns="http://www.w3.org/2000/svg" version="1.1" xmlns:xlink="http://www.w3.org/1999/xlink" width="512" height="512" x="0" y="0" viewBox="0 0 64 64" style="enable-background:new 0 0 512 512" xml:space="preserve" class=""><g><g fill="#f0bc5e"><path d="M35 7h14v9H35zM10 23c-1.654 0-3 1.346-3 3s1.346 3 3 3 3-1.346 3-3-1.346-3-3-3zM18 23c-1.654 0-3 1.346-3 3s1.346 3 3 3 3-1.346 3-3-1.346-3-3-3zM26 23c-1.654 0-3 1.346-3 3s1.346 3 3 3 3-1.346 3-3-1.346-3-3-3zM39 48h8v9h-8z" fill="#1e9edb" opacity="1" data-original="#f0bc5e" class=""></path></g><path d="M48 19h-2v2h-3v8h6v4h-4v-2h-2v4h3v2h2v-2h3v-8h-6v-4h4v2h2v-4h-3z" fill="#000000" opacity="1" data-original="#000000"></path><path d="M53.414 1H34c-1.654 0-3 1.346-3 3v15H5c-2.206 0-4 1.794-4 4v36c0 2.206 1.794 4 4 4h42c2.206 0 4-1.794 4-4V43h9c1.654 0 3-1.346 3-3V10.586zM53 3.414 60.586 11H54c-.552 0-1-.449-1-1zM31 39H7v-2h24zM15 49h8v2h-8zm0-2v-2h8v2zm8-4h-8v-2h8zM7 41h6v14H7zm8 12h8v2h-8zm10 0h10v2H25zm10-2H25v-2h10zm0-4H25v-6h6.184A2.996 2.996 0 0 0 34 43h1zM5 21h26v10H3v-8c0-1.103.897-2 2-2zm44 38c0 1.103-.897 2-2 2H5c-1.103 0-2-.897-2-2V33h28v2H5v22h32V43h12zm11-18H34a1 1 0 0 1-1-1V4c0-.551.448-1 1-1h17v7c0 1.654 1.346 3 3 3h7v27a1 1 0 0 1-1 1z" fill="#000000" opacity="1" data-original="#000000"></path><path d="M35 7h2v2h-2zM39 7h10v2H39zM35 11h14v2H35zM35 15h24v2H35zM39 47h8v2h-8zM39 51h8v2h-8zM39 55h4v2h-4zM45 55h2v2h-2z" fill="#000000" opacity="1" data-original="#000000"></path></g></svg>