<svg xmlns="http://www.w3.org/2000/svg" version="1.1" xmlns:xlink="http://www.w3.org/1999/xlink" width="512" height="512" x="0" y="0" viewBox="0 0 500 500" style="enable-background:new 0 0 512 512" xml:space="preserve" class=""><g><path fill-rule="evenodd" d="m69.989 279.91 40.4-42.116a.833.833 0 0 0 .24-.597V92.994c0-.238.085-.442.253-.61l49.253-49.253a.834.834 0 0 1 .61-.253h208.316c11.17 0 20.31 9.139 20.31 20.31v174.009c0 .231.08.43.24.597l40.38 42.095c.194.203.274.46.229.737s-.204.496-.453.625l-52.08 27.133c-.275.143-.581.134-.846-.027s-.415-.427-.415-.738V63.188c0-4.025-3.34-7.365-7.365-7.365H165.749l-.039.039v23.023c0 11.17-9.139 20.31-20.31 20.31h-20.964a.864.864 0 0 0-.863.863v207.593c0 .31-.15.577-.415.738s-.571.171-.846.027l-52.1-27.143a.84.84 0 0 1-.453-.625.846.846 0 0 1 .23-.738zm-8.284 175.683a.848.848 0 0 0-.262.957.85.85 0 0 0 .812.571h375.491a.85.85 0 0 0 .812-.571.851.851 0 0 0-.262-.957l-164.36-135.831c-14.028-11.593-33.844-11.593-47.872 0zm378.439-17.386V291.896c0-.31-.15-.577-.415-.738s-.571-.171-.846-.027l-108.586 56.572a.84.84 0 0 0-.459.675.844.844 0 0 0 .308.756l108.586 89.739a.847.847 0 0 0 .917.116.85.85 0 0 0 .495-.782zm-380.288 0c0 .342.186.635.495.781s.653.102.917-.116l108.586-89.739c.23-.19.34-.459.308-.756a.84.84 0 0 0-.459-.675L61.118 291.131c-.275-.143-.581-.134-.846.027s-.415.427-.415.738v146.311zm104.328-229.683h171.632a6.473 6.473 0 1 0 0-12.946H164.184a6.473 6.473 0 1 0 0 12.946zm0 38.678h171.632a6.473 6.473 0 1 0 0-12.946H164.184a6.473 6.473 0 1 0 0 12.946zm0 38.678h111.839a6.473 6.473 0 1 0 0-12.946H164.184a6.473 6.473 0 1 0 0 12.946zM281.349 88.832c-6.116-2.905-13.887-5.191-21.816-6.028a.86.86 0 0 1-.772-.858V78.53a6.473 6.473 0 1 0-12.946 0v3.685a.857.857 0 0 1-.728.852c-3.305.523-6.512 1.398-9.514 2.689l-.002-.006c-21.891 9.062-19.775 31.477-.046 40.116l-.004.011c6.283 2.638 11.405 2.979 16.551 3.32 6.147.408 14.4 1.342 18.606 6.814 3.982 5.18-1.018 9.627-6.103 11.848l-.001-.003c-10.967 4.629-25.935 1.619-35.936-2.905a6.462 6.462 0 0 0-5.31 11.782c6.283 2.854 13.908 5.118 21.719 5.981a.86.86 0 0 1 .768.857v3.449a6.474 6.474 0 0 0 12.946 0v-3.639c0-.43.309-.789.734-.853 3.471-.523 6.864-1.429 10.085-2.789l-.001-.003c4.85-2.027 8.791-5.106 11.252-8.231 9.405-11.942 2.045-26.337-11.276-31.867-12.025-4.992-19.74-1.793-29.028-5.694l-.002.005c-9.515-4.496-10.895-11.774-.049-16.265l-.003-.007c10.795-4.485 25.579-1.797 35.365 2.837a6.46 6.46 0 0 0 5.511-11.682z" clip-rule="evenodd" fill="#ffffff" opacity="1" data-original="#000000" class=""></path></g></svg>